<svg width="60" height="60" viewBox="0 0 60 60" fill="none" xmlns="http://www.w3.org/2000/svg">
<path d="M51.025 30L54.275 26.775C54.5081 26.5419 54.693 26.2652 54.8191 25.9606C54.9453 25.656 55.0102 25.3296 55.0102 25C55.0102 24.6703 54.9453 24.3439 54.8191 24.0393C54.693 23.7348 54.5081 23.4581 54.275 23.225C54.0419 22.9919 53.7652 22.807 53.4606 22.6808C53.1561 22.5547 52.8296 22.4897 52.5 22.4897C52.1704 22.4897 51.8439 22.5547 51.5394 22.6808C51.2348 22.807 50.9581 22.9919 50.725 23.225L46.475 27.5H39.675C39.4387 26.6233 39.0855 25.7825 38.625 25L43.4 20.2H49.45C50.113 20.2 50.7489 19.9366 51.2178 19.4677C51.6866 18.9989 51.95 18.363 51.95 17.7C51.95 17.0369 51.6866 16.401 51.2178 15.9322C50.7489 15.4634 50.113 15.2 49.45 15.2H45V10.55C45 9.88693 44.7366 9.25105 44.2678 8.78221C43.7989 8.31337 43.163 8.04997 42.5 8.04997C41.837 8.04997 41.2011 8.31337 40.7322 8.78221C40.2634 9.25105 40 9.88693 40 10.55V16.6L35 21.375C34.2175 20.9145 33.3766 20.5613 32.5 20.325V13.525L36.775 9.27497C37.0081 9.04188 37.193 8.76515 37.3191 8.4606C37.4453 8.15604 37.5102 7.82962 37.5102 7.49997C37.5102 7.17033 37.4453 6.84391 37.3191 6.53935C37.193 6.2348 37.0081 5.95807 36.775 5.72497C36.5419 5.49188 36.2652 5.30698 35.9606 5.18083C35.6561 5.05467 35.3296 4.98975 35 4.98975C34.3342 4.98975 33.6958 5.25422 33.225 5.72497L30 8.97497L26.775 5.72497C26.3042 5.25422 25.6658 4.98975 25 4.98975C24.3342 4.98975 23.6958 5.25422 23.225 5.72497C22.7542 6.19573 22.4898 6.83422 22.4898 7.49997C22.4898 8.16573 22.7542 8.80422 23.225 9.27497L27.5 13.525V20.325C26.6234 20.5613 25.7825 20.9145 25 21.375L20.125 16.6V10.55C20.125 9.88693 19.8616 9.25105 19.3928 8.78221C18.9239 8.31337 18.288 8.04997 17.625 8.04997C16.962 8.04997 16.3261 8.31337 15.8572 8.78221C15.3884 9.25105 15.125 9.88693 15.125 10.55V15.125H10.55C9.88696 15.125 9.25107 15.3884 8.78223 15.8572C8.31339 16.326 8.05 16.9619 8.05 17.625C8.05 18.288 8.31339 18.9239 8.78223 19.3927C9.25107 19.8616 9.88696 20.125 10.55 20.125H16.6L21.375 25C20.9145 25.7825 20.5613 26.6233 20.325 27.5H13.525L9.275 23.225C8.80424 22.7542 8.16575 22.4897 7.5 22.4897C6.83425 22.4897 6.19576 22.7542 5.725 23.225C5.25424 23.6957 4.98977 24.3342 4.98977 25C4.98977 25.6657 5.25424 26.3042 5.725 26.775L8.975 30L5.725 33.225C5.49068 33.4574 5.30469 33.7339 5.17777 34.0385C5.05085 34.3432 4.9855 34.6699 4.9855 35C4.9855 35.33 5.05085 35.6568 5.17777 35.9614C5.30469 36.2661 5.49068 36.5426 5.725 36.775C5.95741 37.0093 6.23391 37.1953 6.53856 37.3222C6.84321 37.4491 7.16997 37.5145 7.5 37.5145C7.83003 37.5145 8.15679 37.4491 8.46144 37.3222C8.76609 37.1953 9.04259 37.0093 9.275 36.775L13.525 32.5H20.325C20.5613 33.3766 20.9145 34.2175 21.375 35L16.6 40H10.55C9.88696 40 9.25107 40.2634 8.78223 40.7322C8.31339 41.201 8.05 41.8369 8.05 42.5C8.05 43.163 8.31339 43.7989 8.78223 44.2677C9.25107 44.7366 9.88696 45 10.55 45H15.125V49.575C15.125 50.238 15.3884 50.8739 15.8572 51.3427C16.3261 51.8116 16.962 52.075 17.625 52.075C18.288 52.075 18.9239 51.8116 19.3928 51.3427C19.8616 50.8739 20.125 50.238 20.125 49.575V43.4L25 38.625C25.7825 39.0855 26.6234 39.4386 27.5 39.675V46.475L23.225 50.725C22.7542 51.1957 22.4898 51.8342 22.4898 52.5C22.4898 53.1657 22.7542 53.8042 23.225 54.275C23.6958 54.7457 24.3342 55.0102 25 55.0102C25.6658 55.0102 26.3042 54.7457 26.775 54.275L30 51.025L33.225 54.275C33.4574 54.5093 33.7339 54.6953 34.0386 54.8222C34.3432 54.9491 34.67 55.0145 35 55.0145C35.33 55.0145 35.6568 54.9491 35.9614 54.8222C36.2661 54.6953 36.5426 54.5093 36.775 54.275C37.0093 54.0426 37.1953 53.7661 37.3222 53.4614C37.4492 53.1568 37.5145 52.83 37.5145 52.5C37.5145 52.1699 37.4492 51.8432 37.3222 51.5385C37.1953 51.2339 37.0093 50.9574 36.775 50.725L32.5 46.475V39.675C33.3766 39.4386 34.2175 39.0855 35 38.625L40 43.4V49.45C40 50.113 40.2634 50.7489 40.7322 51.2177C41.2011 51.6866 41.837 51.95 42.5 51.95C43.163 51.95 43.7989 51.6866 44.2678 51.2177C44.7366 50.7489 45 50.113 45 49.45V45H49.575C50.238 45 50.8739 44.7366 51.3428 44.2677C51.8116 43.7989 52.075 43.163 52.075 42.5C52.075 41.8369 51.8116 41.201 51.3428 40.7322C50.8739 40.2634 50.238 40 49.575 40H43.4L38.625 35C39.0855 34.2175 39.4387 33.3766 39.675 32.5H46.475L50.725 36.775C50.9574 37.0093 51.2339 37.1953 51.5386 37.3222C51.8432 37.4491 52.17 37.5145 52.5 37.5145C52.83 37.5145 53.1568 37.4491 53.4614 37.3222C53.7661 37.1953 54.0426 37.0093 54.275 36.775C54.5093 36.5426 54.6953 36.2661 54.8222 35.9614C54.9492 35.6568 55.0145 35.33 55.0145 35C55.0145 34.6699 54.9492 34.3432 54.8222 34.0385C54.6953 33.7339 54.5093 33.4574 54.275 33.225L51.025 30ZM33.525 33.475C32.5586 34.3073 31.3255 34.7651 30.05 34.7651C28.7745 34.7651 27.5414 34.3073 26.575 33.475C25.6738 32.5426 25.17 31.2967 25.17 30C25.17 28.7033 25.6738 27.4573 26.575 26.525C27.5414 25.6926 28.7745 25.2348 30.05 25.2348C31.3255 25.2348 32.5586 25.6926 33.525 26.525C34.4262 27.4573 34.93 28.7033 34.93 30C34.93 31.2967 34.4262 32.5426 33.525 33.475Z" fill="black"/>
</svg>
