<svg width="50" height="50" viewBox="0 0 50 50" fill="none" xmlns="http://www.w3.org/2000/svg">
<path fill-rule="evenodd" clip-rule="evenodd" d="M33.3333 6.75586H16.6667C10.9137 6.75586 6.25 11.4196 6.25 17.1725V33.8392C6.25 39.5921 10.9137 44.2559 16.6667 44.2559H33.3333C39.0863 44.2559 43.75 39.5921 43.75 33.8392V17.1725C43.75 11.4196 39.0863 6.75586 33.3333 6.75586ZM40.1042 33.8392C40.0927 37.5738 37.0679 40.5986 33.3333 40.61H16.6667C12.932 40.5986 9.90727 37.5738 9.89583 33.8392V17.1725C9.90727 13.4378 12.932 10.4131 16.6667 10.4017H33.3333C37.0679 10.4131 40.0927 13.4378 40.1042 17.1725V33.8392ZM34.8958 17.6934C36.0465 17.6934 36.9792 16.7606 36.9792 15.61C36.9792 14.4594 36.0465 13.5267 34.8958 13.5267C33.7452 13.5267 32.8125 14.4594 32.8125 15.61C32.8125 16.7606 33.7452 17.6934 34.8958 17.6934ZM25 16.1309C19.8223 16.1309 15.625 20.3282 15.625 25.5059C15.625 30.6836 19.8223 34.8809 25 34.8809C30.1777 34.8809 34.375 30.6836 34.375 25.5059C34.3806 23.0177 33.3946 20.63 31.6352 18.8706C29.8758 17.1113 27.4881 16.1253 25 16.1309ZM19.2708 25.5059C19.2708 28.67 21.8358 31.235 25 31.235C28.1642 31.235 30.7292 28.67 30.7292 25.5059C30.7292 22.3417 28.1642 19.7767 25 19.7767C21.8358 19.7767 19.2708 22.3417 19.2708 25.5059Z" fill="black"/>
</svg>
