<svg width="50" height="50" viewBox="0 0 50 50" fill="none" xmlns="http://www.w3.org/2000/svg">
<path d="M43.75 16.667L36.3317 20.7883C32.1958 23.086 30.1279 24.2349 27.9379 24.6853C25.9996 25.0839 24.0004 25.0839 22.0621 24.6853C19.8722 24.2349 17.8042 23.086 13.6683 20.7883L6.25 16.667M12.9167 39.5837H37.0833C39.4169 39.5837 40.5838 39.5837 41.475 39.1295C42.259 38.7301 42.8965 38.0926 43.2958 37.3087C43.75 36.4174 43.75 35.2505 43.75 32.917V17.0837C43.75 14.7501 43.75 13.5833 43.2958 12.692C42.8965 11.908 42.259 11.2706 41.475 10.8711C40.5838 10.417 39.4169 10.417 37.0833 10.417H12.9167C10.5831 10.417 9.41633 10.417 8.52504 10.8711C7.74102 11.2706 7.1036 11.908 6.70415 12.692C6.25 13.5833 6.25 14.7501 6.25 17.0837V32.917C6.25 35.2505 6.25 36.4174 6.70415 37.3087C7.1036 38.0926 7.74102 38.7301 8.52504 39.1295C9.41633 39.5837 10.5831 39.5837 12.9167 39.5837Z" stroke="black" stroke-width="4" stroke-linecap="round" stroke-linejoin="round"/>
</svg>
