<svg width="60" height="60" viewBox="0 0 60 60" fill="none" xmlns="http://www.w3.org/2000/svg">
<g clip-path="url(#clip0_141_68)">
<path d="M47.2582 46.698L25.1541 13.0655C24.7062 12.3838 24.0278 11.9929 23.2935 11.9929C22.5409 11.9929 21.8551 12.3991 21.4118 13.1072L0.385922 46.7072C-0.0715276 47.4386 -0.124844 48.2347 0.239555 48.8929C0.603954 49.5512 1.30761 49.9283 2.16992 49.9283H45.5156C46.3847 49.9283 47.0878 49.5478 47.4457 48.8844C47.8036 48.2209 47.7353 47.4243 47.2582 46.698ZM23.3065 14.6271C23.5274 14.6271 23.6557 14.8398 23.6557 14.8398L37.0527 34.7827C37.9159 36.3363 37.3379 36.818 35.7003 35.2286C35.7003 35.2286 30.851 29.6017 29.0382 27.9207C28.5831 27.4987 27.6579 27.3904 27.1425 27.7365C25.8005 28.6371 23.4643 30.9139 22.1068 31.7913C21.5857 32.1282 20.878 31.8387 20.7306 31.2354C20.2432 29.2426 19.8353 25.1369 19.3212 23.1506C19.1658 22.5497 18.5841 22.4388 18.0834 22.8057C17.9594 22.8966 17.6952 23.0552 17.5628 23.1334C17.4097 23.2237 17.4951 23.096 17.4951 23.096L22.9765 14.818C22.9762 14.8184 23.0759 14.6271 23.3065 14.6271Z" fill="black"/>
<path d="M59.6186 42.0099L39.2768 11.0588C38.8644 10.4316 38.2404 10.0718 37.5643 10.0718C36.8718 10.0718 36.2407 10.4456 35.8329 11.0974L31.5834 17.8882C31.5834 17.8882 31.4246 18.131 31.5477 18.4044C31.6851 18.7097 32.0722 19.264 32.2836 19.5239C32.4486 19.7263 32.6575 19.3832 32.6575 19.3832L37.3099 12.3256C37.3099 12.3256 37.436 12.1377 37.5768 12.1377C37.737 12.1377 37.8581 12.3379 37.8581 12.3379L51.0967 31.925C51.4728 32.4715 50.4781 32.4739 49.6106 31.7782C48.2999 30.7272 45.7064 28.5888 44.3923 27.542C43.9452 27.186 43.1294 27.065 42.6479 27.3724C41.9383 27.8253 40.2491 29.148 39.5607 29.7829C39.1913 30.1234 39.4607 30.4434 39.4607 30.4434L48.7188 44.5305C48.7188 44.5305 48.9806 44.9826 49.3962 44.9826C51.5511 44.9826 58.0158 44.9826 58.0158 44.9826C58.8151 44.9826 59.4628 44.6323 59.7919 44.022C60.1208 43.4115 60.0577 42.6781 59.6186 42.0099Z" fill="black"/>
</g>
<defs>
<clipPath id="clip0_141_68">
<rect width="60" height="60" fill="white"/>
</clipPath>
</defs>
</svg>
