<svg width="50" height="50" viewBox="0 0 50 50" fill="none" xmlns="http://www.w3.org/2000/svg">
<path d="M38.5417 43.75C20.7075 43.75 6.25 29.2925 6.25 11.4583C6.25 10.6537 6.27938 9.85596 6.33729 9.06608C6.40375 8.15962 6.43687 7.70637 6.67437 7.29381C6.87104 6.9521 7.21979 6.62804 7.575 6.45677C8.00375 6.25 8.50396 6.25 9.50417 6.25H15.3735C16.2148 6.25 16.6354 6.25 16.9958 6.38844C17.3144 6.51073 17.5979 6.70935 17.8217 6.96687C18.075 7.2584 18.2188 7.65367 18.5063 8.44419L20.9356 15.1251C21.27 16.0449 21.4373 16.5047 21.409 16.941C21.384 17.3258 21.2525 17.696 21.0296 18.0105C20.7769 18.3672 20.3573 18.619 19.5179 19.1225L16.6667 20.8333C19.1669 26.354 23.6481 30.8294 29.1667 33.3333L30.8775 30.4821C31.381 29.6427 31.6328 29.2231 31.9895 28.9704C32.304 28.7475 32.6742 28.616 33.059 28.591C33.4953 28.5627 33.9551 28.73 34.8749 29.0644L41.5558 31.4937C42.3463 31.7812 42.7416 31.925 43.0331 32.1783C43.2906 32.4021 43.4893 32.6856 43.6116 33.0042C43.75 33.3646 43.75 33.7852 43.75 34.6265V40.4958C43.75 41.496 43.75 41.9962 43.5432 42.425C43.372 42.7802 43.0479 43.129 42.7062 43.3256C42.2936 43.5631 41.8404 43.5962 40.9339 43.6627C40.144 43.7206 39.3463 43.75 38.5417 43.75Z" stroke="black" stroke-width="3" stroke-linecap="round" stroke-linejoin="round"/>
</svg>
