<svg width="60" height="60" viewBox="0 0 60 60" fill="none" xmlns="http://www.w3.org/2000/svg">
<g clip-path="url(#clip0_141_41)">
<path d="M13.0442 18.791L3.92701 15.9562C2.33104 15.4585 0.634517 16.3497 0.136717 17.9482C-0.35855 19.5443 0.532703 21.2419 2.12994 21.7372L12.4266 24.9389C12.7196 25.031 13.0224 25.0758 13.3252 25.0758C13.8011 25.0758 14.2746 24.9631 14.7056 24.7427L20.4322 21.8086L23.2827 31.6571C22.974 31.7625 22.6773 31.9042 22.4036 32.0894L16.6892 35.9899C15.0726 37.0931 14.6209 39.2788 15.6672 40.9329L21.464 50.0901L15.0217 51.0746C10.3196 51.7927 7.0949 54.0499 7.82507 56.1134C8.5517 58.1767 12.9559 59.2848 17.6604 58.5836L50.9274 53.643C55.6317 52.9431 59.686 50.5284 59.9827 48.2482C60.2794 45.9692 56.7085 44.7037 52.005 45.4219L45.7566 46.3773L39.1909 33.4444C39.1509 33.367 39.1012 33.2942 39.0564 33.2193L35.5204 19.234L43.6384 18.3428C44.3263 18.2677 44.9693 17.9577 45.4561 17.4648L53.4641 9.39263C54.6423 8.20594 54.6351 6.28907 53.4471 5.112C52.2616 3.9338 50.3447 3.94102 49.1664 5.12897L41.9116 12.4406L33.7208 13.3403C33.5077 13.3634 33.303 13.4106 33.108 13.4735L19.4329 15.8264C19.0127 15.8458 18.5925 15.9463 18.1954 16.151L13.0442 18.791ZM25.5715 38.7243H33.7199L38.1931 47.5339L29.3024 48.8925L23.6812 40.0127L25.5715 38.7243Z" fill="black"/>
<path d="M24.6583 13.3176C28.0029 13.3176 30.7142 10.6063 30.7142 7.26172C30.7142 3.91713 28.0029 1.20581 24.6583 1.20581C21.3137 1.20581 18.6024 3.91713 18.6024 7.26172C18.6024 10.6063 21.3137 13.3176 24.6583 13.3176Z" fill="black"/>
</g>
<defs>
<clipPath id="clip0_141_41">
<rect width="60" height="60" fill="white"/>
</clipPath>
</defs>
</svg>
