<svg width="68" height="68" viewBox="0 0 68 68" fill="none" xmlns="http://www.w3.org/2000/svg">
<g clip-path="url(#clip0_141_32)">
<path d="M3.95823 5.84242C5.29765 2.16272 8.75701 0 12.2873 0C15.5663 0 18.8031 1.84583 20.3333 5.12763C22.4004 9.56038 20.4756 14.8488 16.0426 16.9159C14.8516 17.4714 13.5927 17.7529 12.3004 17.7529C6.17036 17.7529 1.84386 11.6508 3.95823 5.84242Z" fill="black"/>
<path d="M11.6922 61.2118C12.8025 60.6947 14.1217 61.1744 14.6394 62.2844C15.1549 63.3901 16.4718 63.8714 17.5787 63.3609L31.9334 56.5093C31.9396 56.5064 31.9457 56.5044 31.9518 56.5016L27.2636 46.4479C26.5544 44.9238 26.7629 43.1597 27.8079 41.843L34.4663 33.4526L30.4105 30.2086C30.0074 30.5383 17.4744 36.3357 17.6225 36.2666C15.3858 37.3096 12.749 36.3106 11.7283 34.1213C10.6965 31.9083 11.6607 29.2589 13.8737 28.2272L20.2248 25.2656L23.8932 15.1865C24.7188 12.9183 27.2658 11.6742 29.6007 12.5242C30.3111 12.8001 36.4705 17.7593 40.2573 20.8014C43.5008 19.2889 47.3473 17.4953 49.3746 16.5498L48.4375 14.5398C47.92 13.4297 48.4002 12.1103 49.5101 11.5927C50.62 11.0754 51.9397 11.5554 52.4572 12.6654L53.3944 14.6753L55.4043 13.7381C56.5143 13.2207 57.8339 13.7008 58.3514 14.8107C58.869 15.9209 58.3889 17.2404 57.2789 17.758L55.2689 18.6951L56.206 20.7051C56.8933 22.1789 55.8089 23.8604 54.1976 23.8604C53.3625 23.8604 52.5624 23.3863 52.1863 22.5793L51.2492 20.5696L44.1396 23.8849C44.2874 24.0004 45.254 24.6944 46.3496 25.5624C47.2967 26.314 47.891 27.3825 48.0229 28.571C48.1517 29.7301 47.8229 30.8654 47.0976 31.7677L36.4674 45.1946L39.9914 52.7518L61.4295 42.7551C62.5396 42.2377 63.8589 42.7177 64.3766 43.8279C64.8942 44.9379 64.4139 46.2574 63.304 46.775L19.479 67.3684C19.473 67.3713 19.467 67.3739 19.461 67.377C16.1361 68.9276 12.1699 67.4835 10.6196 64.1591C10.102 63.049 10.5821 61.7295 11.6922 61.2118Z" fill="black"/>
</g>
<defs>
<clipPath id="clip0_141_32">
<rect width="68" height="68" fill="white" transform="matrix(-1 0 0 1 68 0)"/>
</clipPath>
</defs>
</svg>
