<svg width="50" height="50" viewBox="0 0 50 50" fill="none" xmlns="http://www.w3.org/2000/svg">
<path d="M26.025 1.60742C28.5829 1.56836 31.1219 1.58867 33.6594 1.56836C33.7438 4.7418 35.0313 7.59805 37.0797 9.71367L37.0766 9.71055C39.2813 11.6965 42.15 12.984 45.3125 13.2027L45.3563 13.2059V21.0746C42.3688 20.9996 39.5594 20.3105 37.0266 19.1262L37.1547 19.1793C35.9297 18.5902 34.8938 17.9855 33.9094 17.3105L33.9907 17.3637C33.9719 23.0652 34.0094 28.7668 33.9516 34.448C33.7907 37.3434 32.8282 39.984 31.2844 42.1887L31.3157 42.1402C28.7344 45.8371 24.5532 48.2637 19.7985 48.4074H19.7766C19.5844 48.4168 19.3579 48.4215 19.1297 48.4215C16.4266 48.4215 13.9 47.6684 11.7469 46.3605L11.8094 46.3965C7.89067 44.0387 5.18754 40.0043 4.68754 35.3121L4.68129 35.248C4.64223 34.2715 4.62348 33.2949 4.66254 32.3387C5.42817 24.8715 11.6844 19.0949 19.2891 19.0949C20.1438 19.0949 20.9813 19.1684 21.7954 19.3074L21.7079 19.2949C21.7469 22.184 21.6297 25.0746 21.6297 27.9637C20.9688 27.7246 20.2063 27.5855 19.411 27.5855C16.4922 27.5855 14.0094 29.4512 13.0907 32.0559L13.0766 32.1027C12.8688 32.7699 12.7485 33.5371 12.7485 34.3309C12.7485 34.6527 12.7688 34.9715 12.8063 35.284L12.8032 35.2465C13.3219 38.4434 16.0625 40.8559 19.3672 40.8559C19.4625 40.8559 19.5563 40.8543 19.65 40.8496H19.636C21.9219 40.7809 23.9063 39.5512 25.0282 37.734L25.0438 37.7059C25.461 37.1246 25.7469 36.4215 25.8422 35.6574L25.8438 35.6355C26.0391 32.1402 25.961 28.6652 25.9797 25.1699C25.9985 17.3012 25.961 9.45117 26.0188 1.60273L26.025 1.60742Z" fill="black"/>
</svg>
