<svg width="50" height="50" viewBox="0 0 50 50" fill="none" xmlns="http://www.w3.org/2000/svg">
<path d="M44.9854 15.0066C44.7481 14.1262 44.2843 13.3233 43.6403 12.6778C42.9963 12.0323 42.1944 11.5667 41.3145 11.3274C38.052 10.4316 25 10.417 25 10.417C25 10.417 11.95 10.4024 8.68537 11.2587C7.80605 11.509 7.00583 11.9811 6.36155 12.6298C5.71727 13.2784 5.25055 14.0818 5.0062 14.9628C4.14579 18.2253 4.13745 24.992 4.13745 24.992C4.13745 24.992 4.12912 31.792 4.98329 35.0212C5.46245 36.8066 6.86871 38.217 8.65621 38.6983C11.952 39.5941 24.9687 39.6087 24.9687 39.6087C24.9687 39.6087 38.0208 39.6233 41.2833 38.7691C42.1635 38.5302 42.9661 38.0657 43.6117 37.4216C44.2574 36.7774 44.7237 35.9758 44.9645 35.0962C45.827 31.8358 45.8333 25.0712 45.8333 25.0712C45.8333 25.0712 45.875 18.2691 44.9854 15.0066ZM20.825 31.2608L20.8354 18.7608L31.6833 25.0212L20.825 31.2608Z" fill="black"/>
</svg>
